<?xml version="1.0" encoding="UTF-8" standalone="no"?>
<!-- Created with Inkscape (http://www.inkscape.org/) -->

<svg
   xmlns:dc="http://purl.org/dc/elements/1.1/"
   xmlns:cc="http://creativecommons.org/ns#"
   xmlns:rdf="http://www.w3.org/1999/02/22-rdf-syntax-ns#"
   xmlns:svg="http://www.w3.org/2000/svg"
   xmlns="http://www.w3.org/2000/svg"
   xmlns:sodipodi="http://sodipodi.sourceforge.net/DTD/sodipodi-0.dtd"
   xmlns:inkscape="http://www.inkscape.org/namespaces/inkscape"
   id="svg4136"
   version="1.1"
   inkscape:version="0.91 r13725"
   xml:space="preserve"
   width="407.48022"
   height="921.25977"
   viewBox="0 0 407.48022 921.25975"
   sodipodi:docname="mur lateral.svg"><metadata
     id="metadata4142"><rdf:RDF><cc:Work
         rdf:about=""><dc:format>image/svg+xml</dc:format><dc:type
           rdf:resource="http://purl.org/dc/dcmitype/StillImage" /><dc:title></dc:title></cc:Work></rdf:RDF></metadata><defs
     id="defs4140" /><sodipodi:namedview
     pagecolor="#ffffff"
     bordercolor="#666666"
     borderopacity="1"
     objecttolerance="10"
     gridtolerance="10"
     guidetolerance="10"
     inkscape:pageopacity="0"
     inkscape:pageshadow="2"
     inkscape:window-width="1920"
     inkscape:window-height="1018"
     id="namedview4138"
     showgrid="false"
     fit-margin-top="0"
     fit-margin-left="0"
     fit-margin-right="0"
     fit-margin-bottom="0"
     inkscape:zoom="0.28490649"
     inkscape:cx="-396.60434"
     inkscape:cy="492.33208"
     inkscape:window-x="-8"
     inkscape:window-y="-8"
     inkscape:window-maximized="1"
     inkscape:current-layer="g4144" /><g
     id="g4144"
     inkscape:groupmode="layer"
     inkscape:label="mur lateral"
     transform="matrix(1.25,0,0,-1.25,-2503.098,1918.8902)"><g
       id="g4246"
       transform="matrix(0.99911632,0,0,0.99960981,2040.8562,862.85279)"
       style="stroke:#ff0000;stroke-width:0.28346458;stroke-miterlimit:4;stroke-dasharray:none;stroke-opacity:1"><path
         d="M 0,0 1.638,0.306 3.056,1.184 4.06,2.514 4.516,4.117 4.362,5.777 3.619,7.269 2.388,8.392 0.833,8.994 -0.833,8.994 -2.388,8.392 -3.619,7.269 -4.362,5.777 -4.516,4.117 -4.06,2.514 -3.056,1.184 -1.638,0.306 0,0 m 249.449,0 1.638,0.306 1.417,0.878 1.005,1.33 0.456,1.603 -0.154,1.66 -0.743,1.492 -1.232,1.123 -1.554,0.602 -1.667,0 -1.554,-0.602 -1.232,-1.123 -0.743,-1.492 -0.153,-1.66 0.456,-1.603 1.004,-1.33 L 247.81,0.306 249.449,0 m -235.276,323.15 1.639,0.306 1.417,0.877 1.004,1.33 0.456,1.604 -0.153,1.659 -0.744,1.492 -1.231,1.123 -1.554,0.602 -1.667,0 -1.554,-0.602 -1.232,-1.123 -0.743,-1.492 -0.154,-1.659 0.456,-1.604 1.005,-1.33 1.417,-0.877 1.638,-0.306 m 221.103,0 1.638,0.306 1.417,0.877 1.004,1.33 0.457,1.604 -0.154,1.659 -0.743,1.492 -1.232,1.123 -1.554,0.602 -1.667,0 -1.554,-0.602 -1.232,-1.123 -0.743,-1.492 -0.153,-1.659 0.456,-1.604 1.004,-1.33 1.417,-0.877 1.639,-0.306 m -221.103,288 1.639,0.306 1.417,0.877 1.004,1.331 0.456,1.603 -0.153,1.659 -0.744,1.492 -1.231,1.123 -1.554,0.602 -1.667,0 -1.554,-0.602 -1.232,-1.123 -0.743,-1.492 -0.154,-1.659 0.456,-1.603 1.005,-1.331 1.417,-0.877 1.638,-0.306 m 221.103,0 1.638,0.306 1.417,0.877 1.004,1.331 0.457,1.603 -0.154,1.659 -0.743,1.492 -1.232,1.123 -1.554,0.602 -1.667,0 -1.554,-0.602 -1.232,-1.123 -0.743,-1.492 -0.153,-1.659 0.456,-1.603 1.004,-1.331 1.417,-0.877 1.639,-0.306 m -273.544,61.228 325.985,0 m 0,0 0,-737.008 m -325.985,0 325.985,0 m -325.985,737.008 0,-737.008"
         style="fill:none;stroke:#ff0000;stroke-width:0.28346458;stroke-linecap:round;stroke-linejoin:round;stroke-miterlimit:4;stroke-dasharray:none;stroke-opacity:1"
         id="path4248"
         inkscape:connector-curvature="0" /></g></g></svg>