<?xml version="1.0" encoding="UTF-8" standalone="no"?>
<!-- Created with Inkscape (http://www.inkscape.org/) -->

<svg
   xmlns:dc="http://purl.org/dc/elements/1.1/"
   xmlns:cc="http://creativecommons.org/ns#"
   xmlns:rdf="http://www.w3.org/1999/02/22-rdf-syntax-ns#"
   xmlns:svg="http://www.w3.org/2000/svg"
   xmlns="http://www.w3.org/2000/svg"
   xmlns:sodipodi="http://sodipodi.sourceforge.net/DTD/sodipodi-0.dtd"
   xmlns:inkscape="http://www.inkscape.org/namespaces/inkscape"
   id="svg4136"
   version="1.1"
   inkscape:version="0.91 r13725"
   xml:space="preserve"
   width="325.98413"
   height="921.25977"
   viewBox="0 0 325.98413 921.25975"
   sodipodi:docname="mur arrière.svg"><metadata
     id="metadata4142"><rdf:RDF><cc:Work
         rdf:about=""><dc:format>image/svg+xml</dc:format><dc:type
           rdf:resource="http://purl.org/dc/dcmitype/StillImage" /><dc:title></dc:title></cc:Work></rdf:RDF></metadata><defs
     id="defs4140" /><sodipodi:namedview
     pagecolor="#ffffff"
     bordercolor="#666666"
     borderopacity="1"
     objecttolerance="10"
     gridtolerance="10"
     guidetolerance="10"
     inkscape:pageopacity="0"
     inkscape:pageshadow="2"
     inkscape:window-width="1920"
     inkscape:window-height="1018"
     id="namedview4138"
     showgrid="false"
     fit-margin-top="0"
     fit-margin-left="0"
     fit-margin-right="0"
     fit-margin-bottom="0"
     inkscape:zoom="1.6116745"
     inkscape:cx="137.24152"
     inkscape:cy="378.01799"
     inkscape:window-x="-8"
     inkscape:window-y="-8"
     inkscape:window-maximized="1"
     inkscape:current-layer="g4144" /><g
     id="g4144"
     inkscape:groupmode="layer"
     inkscape:label="mur arrière"
     transform="matrix(1.25,0,0,-1.25,-2613.8949,2202.099)"><g
       id="g4246"
       transform="matrix(0.99889992,0,0,0.99960981,2139.3955,1089.4199)"
       style="stroke:#fc0000;stroke-width:0.28346458;stroke-miterlimit:4;stroke-dasharray:none;stroke-opacity:1"><path
         d="m 0,0 1.551,0.273 1.364,0.788 1.013,1.207 0.538,1.48 0,1.575 L 3.928,6.803 2.915,8.01 1.551,8.797 0,9.071 -1.551,8.797 -2.915,8.01 -3.928,6.803 l -0.539,-1.48 0,-1.575 0.539,-1.48 L -2.915,1.061 -1.551,0.273 0,0 m 164.409,0 1.552,0.273 1.364,0.788 1.012,1.207 0.539,1.48 0,1.575 -0.539,1.48 -1.012,1.207 -1.364,0.787 -1.552,0.274 -1.551,-0.274 -1.364,-0.787 -1.012,-1.207 -0.539,-1.48 0,-1.575 0.539,-1.48 1.012,-1.207 1.364,-0.788 L 164.409,0 M 0,323.15 l 1.551,0.273 1.364,0.788 1.013,1.206 0.538,1.48 0,1.576 -0.538,1.48 -1.013,1.206 -1.364,0.788 -1.551,0.273 -1.551,-0.273 -1.364,-0.788 -1.013,-1.206 -0.539,-1.48 0,-1.576 0.539,-1.48 1.013,-1.206 1.364,-0.788 L 0,323.15 m 164.409,0 1.552,0.273 1.364,0.788 1.012,1.206 0.539,1.48 0,1.576 -0.539,1.48 -1.012,1.206 -1.364,0.788 -1.552,0.273 -1.551,-0.273 -1.364,-0.788 -1.012,-1.206 -0.539,-1.48 0,-1.576 0.539,-1.48 1.012,-1.206 1.364,-0.788 1.551,-0.273 M 0,611.15 l 1.551,0.273 1.364,0.788 1.013,1.206 0.538,1.48 0,1.576 -0.538,1.48 -1.013,1.206 -1.364,0.788 -1.551,0.273 -1.551,-0.273 -1.364,-0.788 -1.013,-1.206 -0.539,-1.48 0,-1.576 0.539,-1.48 1.013,-1.206 1.364,-0.788 L 0,611.15 m 164.409,0 1.552,0.273 1.364,0.788 1.012,1.206 0.539,1.48 0,1.576 -0.539,1.48 -1.012,1.206 -1.364,0.788 -1.552,0.273 -1.551,-0.273 -1.364,-0.788 -1.012,-1.206 -0.539,-1.48 0,-1.576 0.539,-1.48 1.012,-1.206 1.364,-0.788 1.551,-0.273 m -212.598,61.228 260.787,0 m 0,0 0,-737.008 m -260.787,0 260.787,0 m -260.787,737.008 0,-737.008"
         style="fill:none;stroke:#fc0000;stroke-width:0.28346458;stroke-linecap:round;stroke-linejoin:round;stroke-miterlimit:4;stroke-dasharray:none;stroke-opacity:1"
         id="path4248"
         inkscape:connector-curvature="0" /></g></g></svg>