<?xml version="1.0" encoding="UTF-8" standalone="no"?>
<!-- Created with Inkscape (http://www.inkscape.org/) -->

<svg
   xmlns:dc="http://purl.org/dc/elements/1.1/"
   xmlns:cc="http://creativecommons.org/ns#"
   xmlns:rdf="http://www.w3.org/1999/02/22-rdf-syntax-ns#"
   xmlns:svg="http://www.w3.org/2000/svg"
   xmlns="http://www.w3.org/2000/svg"
   xmlns:sodipodi="http://sodipodi.sourceforge.net/DTD/sodipodi-0.dtd"
   xmlns:inkscape="http://www.inkscape.org/namespaces/inkscape"
   id="svg4250"
   version="1.1"
   inkscape:version="0.91 r13725"
   xml:space="preserve"
   width="407.48032"
   height="921.25983"
   viewBox="0 0 407.48032 921.25981"
   sodipodi:docname="mur lateral.svg"><metadata
     id="metadata4256"><rdf:RDF><cc:Work
         rdf:about=""><dc:format>image/svg+xml</dc:format><dc:type
           rdf:resource="http://purl.org/dc/dcmitype/StillImage" /><dc:title></dc:title></cc:Work></rdf:RDF></metadata><defs
     id="defs4254" /><sodipodi:namedview
     pagecolor="#ffffff"
     bordercolor="#666666"
     borderopacity="1"
     objecttolerance="10"
     gridtolerance="10"
     guidetolerance="10"
     inkscape:pageopacity="0"
     inkscape:pageshadow="2"
     inkscape:window-width="1920"
     inkscape:window-height="1018"
     id="namedview4252"
     showgrid="false"
     fit-margin-top="0"
     fit-margin-left="0"
     fit-margin-right="0"
     fit-margin-bottom="0"
     inkscape:zoom="0.44800375"
     inkscape:cx="-770.11019"
     inkscape:cy="344.86698"
     inkscape:window-x="-8"
     inkscape:window-y="-8"
     inkscape:window-maximized="1"
     inkscape:current-layer="g4360" /><g
     id="g4258"
     inkscape:groupmode="layer"
     inkscape:label="mur lateral"
     transform="matrix(1.25,0,0,-1.25,-2310.2878,2257.2858)"><g
       id="g4360"
       transform="translate(1458.8544,1134.4874)"><path
         d="m 441.91432,-0.91814744 1.63655,0.30588066 1.41676,0.87765757 1.00311,1.32948121 0.4556,1.6023749 -0.15386,1.6593525 -0.74135,1.4914181 -1.23092,1.1215624 -1.55363,0.6027648 -1.66453,0 -1.55263,-0.6027648 -1.23092,-1.1215624 -0.74234,-1.4914181 -0.15387,-1.6593525 0.4556,-1.6023749 1.00412,-1.32948121 1.41575,-0.87765757 1.63656,-0.30588066 m 220.90729,0 1.63756,0.30588066 1.41575,0.87765757 1.00312,1.32948121 0.45659,1.6023749 -0.15386,1.6593525 -0.74235,1.4914181 -1.23091,1.1215624 -1.55263,0.6027648 -1.66553,0 -1.55263,-0.6027648 -1.23092,-1.1215624 -0.74235,-1.4914181 -0.15386,-1.6593525 0.4556,-1.6023749 1.00411,-1.32948121 1.41576,-0.87765757 1.63655,-0.30588066 M 441.91432,322.10582 l 1.63655,0.30588 1.41676,0.87666 1.00311,1.32948 0.4556,1.60337 -0.15386,1.65835 -0.74135,1.49142 -1.23092,1.12256 -1.55363,0.60177 -1.66453,0 -1.55263,-0.60177 -1.23092,-1.12256 -0.74234,-1.49142 -0.15387,-1.65835 0.4556,-1.60337 1.00412,-1.32948 1.41575,-0.87666 1.63656,-0.30588 m 220.90729,0 1.63756,0.30588 1.41575,0.87666 1.00312,1.32948 0.45659,1.60337 -0.15386,1.65835 -0.74235,1.49142 -1.23091,1.12256 -1.55263,0.60177 -1.66553,0 -1.55263,-0.60177 -1.23092,-1.12256 -0.74235,-1.49142 -0.15386,-1.65835 0.4556,-1.60337 1.00411,-1.32948 1.41576,-0.87666 1.63655,-0.30588 m -220.90729,287.88767 1.63655,0.30588 1.41676,0.87666 1.00311,1.32948 0.4556,1.60338 -0.15386,1.65835 -0.74135,1.49142 -1.23092,1.12256 -1.55363,0.60177 -1.66453,0 -1.55263,-0.60177 -1.23092,-1.12256 -0.74234,-1.49142 -0.15387,-1.65835 0.4556,-1.60338 1.00412,-1.32948 1.41575,-0.87666 1.63656,-0.30588 m 220.90729,0 1.63756,0.30588 1.41575,0.87666 1.00312,1.32948 0.45659,1.60338 -0.15386,1.65835 -0.74235,1.49142 -1.23091,1.12256 -1.55263,0.60177 -1.66553,0 -1.55263,-0.60177 -1.23092,-1.12256 -0.74235,-1.49142 -0.15386,-1.65835 0.4556,-1.60338 1.00411,-1.32948 1.41576,-0.87666 1.63655,-0.30588 m -273.30211,61.20412 325.69693,0 m 0,0 0,-736.720551 m -325.69693,0 325.69693,0 M 389.5195,671.19761 l 0,-736.720551"
         style="fill:none;stroke:#ff0000;stroke-width:0.28328449;stroke-linecap:round;stroke-linejoin:round;stroke-miterlimit:10;stroke-dasharray:none;stroke-opacity:1"
         id="path4362"
         inkscape:connector-curvature="0" /></g></g></svg>