<?xml version="1.0" encoding="UTF-8" standalone="no"?>
<!-- Created with Inkscape (http://www.inkscape.org/) -->

<svg
   xmlns:dc="http://purl.org/dc/elements/1.1/"
   xmlns:cc="http://creativecommons.org/ns#"
   xmlns:rdf="http://www.w3.org/1999/02/22-rdf-syntax-ns#"
   xmlns:svg="http://www.w3.org/2000/svg"
   xmlns="http://www.w3.org/2000/svg"
   xmlns:sodipodi="http://sodipodi.sourceforge.net/DTD/sodipodi-0.dtd"
   xmlns:inkscape="http://www.inkscape.org/namespaces/inkscape"
   id="svg4136"
   version="1.1"
   inkscape:version="0.91 r13725"
   xml:space="preserve"
   width="1204.7244"
   height="1027.5591"
   viewBox="0 0 1204.7244 1027.5591"
   sodipodi:docname="Niveau 2.svg"><metadata
     id="metadata4142"><rdf:RDF><cc:Work
         rdf:about=""><dc:format>image/svg+xml</dc:format><dc:type
           rdf:resource="http://purl.org/dc/dcmitype/StillImage" /><dc:title></dc:title></cc:Work></rdf:RDF></metadata><defs
     id="defs4140" /><sodipodi:namedview
     pagecolor="#ffffff"
     bordercolor="#666666"
     borderopacity="1"
     objecttolerance="10"
     gridtolerance="10"
     guidetolerance="10"
     inkscape:pageopacity="0"
     inkscape:pageshadow="2"
     inkscape:window-width="1920"
     inkscape:window-height="1018"
     id="namedview4138"
     showgrid="false"
     fit-margin-top="0"
     fit-margin-left="0"
     fit-margin-right="0"
     fit-margin-bottom="0"
     inkscape:zoom="0.58423295"
     inkscape:cx="553.58342"
     inkscape:cy="619.48735"
     inkscape:window-x="-8"
     inkscape:window-y="-8"
     inkscape:window-maximized="1"
     inkscape:current-layer="g4144" /><g
     id="g4144"
     inkscape:groupmode="layer"
     inkscape:label="Niveau 2"
     transform="matrix(1.25,0,0,-1.25,491.90572,929.62655)"><g
       id="g4250"
       transform="matrix(4.9985254,0,0,4.9982885,1035.3597,357.28764)"
       style="stroke:#ff0000;stroke-width:0.05671098;stroke-miterlimit:4;stroke-dasharray:none;stroke-opacity:1"><path
         d="m -95.562775,-42.65119 0.547,0.422 0.491,0.485 0.428,0.541 0.36,0.589 0.286,0.628 0.207,0.659 0.125,0.678 0.042,0.689 m -69.773005,-49.168 0.422,0.015 0.419,0.048 0.416,0.078 0.408,0.109 0.399,0.139 0.387,0.168 0.374,0.197 0.358,0.224 m -59.576,0 0.358,-0.224 0.374,-0.197 0.388,-0.168 0.398,-0.139 0.409,-0.109 0.415,-0.078 0.419,-0.048 0.422,-0.015 m -69.773,49.168 0.042,-0.689 0.126,-0.678 0.207,-0.659 0.285,-0.628 0.36,-0.589 0.428,-0.541 0.492,-0.485 0.546,-0.422 m -2.486,4.691 0,66.073 m 2.486,4.691 -0.546,-0.422 -0.492,-0.485 -0.428,-0.541 -0.36,-0.589 -0.285,-0.628 -0.207,-0.659 -0.126,-0.678 -0.042,-0.689 m 69.773,49.168 -0.422,-0.016 -0.419,-0.047 -0.415,-0.078 -0.409,-0.109 -0.398,-0.139 -0.388,-0.168 -0.374,-0.197 -0.358,-0.224 m 59.576,0 -0.358,0.224 -0.374,0.197 -0.387,0.168 -0.399,0.139 -0.408,0.109 -0.416,0.078 -0.419,0.047 -0.422,0.016 m 69.773005,-49.168 -0.042,0.689 -0.125,0.678 -0.207,0.659 -0.286,0.628 -0.36,0.589 -0.428,0.541 -0.491,0.485 -0.547,0.422 m 2.486,-4.691 0,-66.073 m -119.054005,106.397 0.347,0.069 0.295,0.197 0.196,0.294 0.069,0.347 -0.069,0.347 -0.196,0.295 -0.295,0.196 -0.347,0.069 -0.347,-0.069 -0.294,-0.196 -0.197,-0.295 -0.069,-0.347 0.069,-0.347 0.197,-0.294 0.294,-0.197 0.347,-0.069 m 45.355,0 0.347,0.069 0.294,0.197 0.197,0.294 0.069,0.347 -0.069,0.347 -0.197,0.295 -0.294,0.196 -0.347,0.069 -0.348,-0.069 -0.294,-0.196 -0.196,-0.295 -0.069,-0.347 0.069,-0.347 0.196,-0.294 0.294,-0.197 0.348,-0.069 m 65.762,-45.92 0.347,0.069 0.294,0.197 0.197,0.294 0.069,0.347 -0.069,0.347 -0.197,0.295 -0.294,0.196 -0.347,0.069 -0.347,-0.069 -0.294,-0.196 -0.197,-0.295 -0.069,-0.347 0.069,-0.347 0.197,-0.294 0.294,-0.197 0.347,-0.069 m -176.882,-0.002 0.347,0.069 0.294,0.196 0.197,0.295 0.069,0.347 -0.069,0.347 -0.197,0.294 -0.294,0.197 -0.347,0.069 -0.347,-0.069 -0.294,-0.197 -0.197,-0.294 -0.069,-0.347 0.069,-0.347 0.197,-0.295 0.294,-0.196 0.347,-0.069 m 0,-56.693 0.347,0.069 0.294,0.196 0.197,0.295 0.069,0.347 -0.069,0.347 -0.197,0.294 -0.294,0.197 -0.347,0.069 -0.347,-0.069 -0.294,-0.197 -0.197,-0.294 -0.069,-0.347 0.069,-0.347 0.197,-0.295 0.294,-0.196 0.347,-0.069 m 176.882,5.671 0.347,0.069 0.294,0.197 0.197,0.294 0.069,0.348 -0.069,0.347 -0.197,0.294 -0.294,0.197 -0.347,0.069 -0.347,-0.069 -0.294,-0.197 -0.197,-0.294 -0.069,-0.347 0.069,-0.348 0.197,-0.294 0.294,-0.197 0.347,-0.069 m -182.333,61.311 64.104,43.499 m 3.183,0.978 53.21,0 m 3.183,-0.978 64.104005,-43.499 m -64.104005,-118.954 64.104005,43.499 m -120.497005,-44.477 53.21,0 m -120.497,44.477 64.104,-43.499"
         style="fill:none;stroke:#ff0000;stroke-width:0.05671098;stroke-linecap:round;stroke-linejoin:round;stroke-miterlimit:4;stroke-dasharray:none;stroke-opacity:1"
         id="path4252"
         inkscape:connector-curvature="0" /></g></g></svg>