<?xml version="1.0" encoding="UTF-8" standalone="no"?>
<!-- Created with Inkscape (http://www.inkscape.org/) -->

<svg
   xmlns:dc="http://purl.org/dc/elements/1.1/"
   xmlns:cc="http://creativecommons.org/ns#"
   xmlns:rdf="http://www.w3.org/1999/02/22-rdf-syntax-ns#"
   xmlns:svg="http://www.w3.org/2000/svg"
   xmlns="http://www.w3.org/2000/svg"
   xmlns:sodipodi="http://sodipodi.sourceforge.net/DTD/sodipodi-0.dtd"
   xmlns:inkscape="http://www.inkscape.org/namespaces/inkscape"
   id="svg4707"
   version="1.1"
   inkscape:version="0.91 r13725"
   xml:space="preserve"
   width="1346.4625"
   height="1021.535"
   viewBox="0 0 1346.4625 1021.535"
   sodipodi:docname="Niveau 1.svg"><metadata
     id="metadata4713"><rdf:RDF><cc:Work
         rdf:about=""><dc:format>image/svg+xml</dc:format><dc:type
           rdf:resource="http://purl.org/dc/dcmitype/StillImage" /><dc:title></dc:title></cc:Work></rdf:RDF></metadata><defs
     id="defs4711" /><sodipodi:namedview
     pagecolor="#ffffff"
     bordercolor="#666666"
     borderopacity="1"
     objecttolerance="10"
     gridtolerance="10"
     guidetolerance="10"
     inkscape:pageopacity="0"
     inkscape:pageshadow="2"
     inkscape:window-width="1920"
     inkscape:window-height="1018"
     id="namedview4709"
     showgrid="false"
     inkscape:zoom="0.92409954"
     inkscape:cx="653.33342"
     inkscape:cy="436.17469"
     inkscape:window-x="-8"
     inkscape:window-y="-8"
     inkscape:window-maximized="1"
     inkscape:current-layer="g4785" /><g
     id="g4715"
     inkscape:groupmode="layer"
     inkscape:label="Niveau 1"
     transform="matrix(1.25,0,0,-1.25,0,1021.535)"><g
       id="g4785"
       transform="matrix(4.9723385,0,0,4.9916846,789.39719,953.81098)"
       style="stroke:#ff0000;stroke-opacity:1;stroke-width:0.05689772;stroke-miterlimit:4;stroke-dasharray:none"><path
         d="M -88.445252,-83.567733 -104.3752,-96.501187 m 0,0 -0.67254,-0.644019 -0.55694,-0.744176 -0.42926,-0.824305 -0.28752,-0.883397 -0.13973,-0.918456 0.0131,-0.92847 0.16387,-0.91445 0.31164,-0.87538 m 0,0 7.231104,-16.00732 m 0,0 0.388045,-0.71613 0.486565,-0.65403 0.576036,-0.57792 0.652439,-0.48977 0.715772,-0.39162 0.765031,-0.28545 0.798207,-0.17428 0.815297,-0.0581 m 0,0 9.286944,0 m 4.029235,1.66263 -0.414183,-0.37359 -0.449368,-0.33253 -0.479526,-0.28645 -0.505665,-0.23838 -0.526777,-0.1873 -0.541856,-0.13521 -0.553919,-0.0821 -0.557941,-0.027 m 4.029235,1.66263 1.669801,1.66363 m 0,0 0,-70.53956 m -1.780383,-0.93948 0.276457,-0.13722 0.301589,-0.0571 0.306616,0.024 0.289526,0.10617 0.250319,0.17927 0.192012,0.23838 0.121641,0.28144 0.04222,0.30449 m -77.291333,50.11025 75.51095,-51.04973 m -78.01012,55.74916 0.0422,-0.69009 0.12566,-0.68007 0.2081,-0.65904 0.28751,-0.63 0.3609,-0.58993 0.43128,-0.54186 0.4936,-0.48577 0.5499,-0.42267 m -2.49917,55.463723 0,-50.764293 m 2.49917,55.462724 -0.5499,-0.421667 -0.4936,-0.485767 -0.43128,-0.541858 -0.3609,-0.589932 -0.28751,-0.629997 -0.2081,-0.659042 -0.12566,-0.680076 -0.0422,-0.690092 m 2.49917,4.698431 75.841693,51.275093 m 3.20087,0.979549 -0.424236,-0.01602 -0.422226,-0.04707 -0.417198,-0.07812 -0.410162,-0.109173 -0.401114,-0.13922 -0.390056,-0.169268 -0.374976,-0.196311 -0.360902,-0.224354 m 3.20087,0.979549 53.490909,0 m 3.199865,-0.979549 -0.359897,0.224354 -0.375981,0.196311 -0.389051,0.169268 -0.401114,0.13922 -0.410162,0.109173 -0.417198,0.07812 -0.422226,0.04707 -0.424236,0.01602 m 3.199865,-0.979549 75.84271,-51.275093 m 2.499171,-4.698431 -0.04222,0.690092 -0.126667,0.680076 -0.208097,0.659042 -0.286509,0.629997 -0.361908,0.589932 -0.430267,0.541858 -0.494607,0.485767 -0.548893,0.421667 m 2.499171,-4.698431 0,-50.764293 m -2.499171,-4.69943 0.548893,0.42267 0.494607,0.48577 0.430267,0.54186 0.361908,0.58993 0.286509,0.63 0.208097,0.65904 0.126667,0.68007 0.04222,0.69009 m -78.011138,-55.74916 75.511967,51.04973 m -77.291345,-50.11025 0.04122,-0.30449 0.121642,-0.28144 0.193017,-0.23838 0.250319,-0.17927 0.288521,-0.10617 0.306616,-0.024 0.302595,0.0571 0.275451,0.13722 m -1.779378,71.47904 0,-70.53956 m 1.668795,68.87593 -1.668795,1.66363 m 5.699036,-3.32626 -0.558946,0.027 -0.552914,0.0821 -0.542861,0.13521 -0.526777,0.1873 -0.50466,0.23838 -0.480531,0.28645 -0.449369,0.33253 -0.414183,0.37359 m 4.030241,-1.66263 8.8868362,0 m 0,0 1.5330798,0.10316 1.5059366,0.30749 1.4506453,0.5078 1.3692161,0.6971 1.26265446,0.87339 1.13297104,1.03564 0.9821764,1.17786 0.8152968,1.29905 0.6313272,1.39621 0.4373047,1.46832 0.2352398,1.51339 0.029154,1.53143 -0.178943,1.5214 -0.3820134,1.48335 -0.5790517,1.41925 m 0,0 -5.9302539,12.114158 m 0,0 -0.6815922,1.15082 -0.8524928,1.031631 -1.0052982,0.885401 -1.1309604,0.718136 -1.230485,0.532842 -1.2988452,0.33453 -1.3350366,0.128202 -1.339058,-0.08113 -1.309904,-0.289458 -1.247575,-0.489774 m 0,0 -7.469365,-3.629741 m 0,18.307954 0,-18.307954 m -5.700041,23.985934 1.11186,-0.109172 1.069638,-0.323512 0.985192,-0.52483 0.863551,-0.706117 0.708735,-0.860361 0.526776,-0.981552 0.324712,-1.064684 0.109577,-1.107752 m -5.700041,5.67798 -45.594293,0 m -5.699035,-5.67798 0.109577,1.107752 0.323707,1.064684 0.526776,0.981552 0.708735,0.860361 0.863551,0.706117 0.986197,0.52483 1.068632,0.323512 1.11186,0.109172 m -5.699035,-5.67798 0,-10.329335 m -2.413721,2.856517 2.413721,-2.856517 m -2.413721,2.856517 -0.903763,0.390618 -0.950007,0.263416 -0.976144,0.130206 -0.986198,-0.005 -0.97514,-0.140222 -0.945984,-0.273431 -0.900748,-0.400634 -0.835403,-0.519823 m 4.188072,-43.502793 0.490586,0.0971 0.416194,0.27644 0.277462,0.41465 0.09751,0.48878 -0.09751,0.48976 -0.277462,0.41366 -0.416194,0.27743 -0.490586,0.0972 -0.49159,-0.0972 -0.415189,-0.27743 -0.278467,-0.41366 -0.09751,-0.48976 0.09751,-0.48878 0.278467,-0.41465 0.415189,-0.27644 0.49159,-0.0971 m 0,-31.2304 0.490586,0.0972 0.416194,0.27643 0.277462,0.41465 0.09751,0.48878 -0.09751,0.48877 -0.277462,0.41466 -0.416194,0.27743 -0.490586,0.0972 -0.49159,-0.0972 -0.415189,-0.27743 -0.278467,-0.41466 -0.09751,-0.48877 0.09751,-0.48878 0.278467,-0.41465 0.415189,-0.27643 0.49159,-0.0972 m 68.391441,0 0.490585,0.0972 0.416194,0.27643 0.277462,0.41465 0.09852,0.48878 -0.09852,0.48877 -0.277462,0.41466 -0.416194,0.27743 -0.490585,0.0972 -0.490586,-0.0972 -0.416193,-0.27743 -0.277463,-0.41466 -0.09852,-0.48877 0.09852,-0.48878 0.277463,-0.41465 0.416193,-0.27643 0.490586,-0.0972 m 0,31.2304 0.490585,0.0971 0.416194,0.27644 0.277462,0.41465 0.09852,0.48878 -0.09852,0.48976 -0.277462,0.41366 -0.416194,0.27743 -0.490585,0.0972 -0.490586,-0.0972 -0.416193,-0.27743 -0.277463,-0.41366 -0.09852,-0.48976 0.09852,-0.48878 0.277463,-0.41465 0.416193,-0.27644 0.490586,-0.0971"
         style="fill:none;stroke:#ff0000;stroke-width:0.05709342;stroke-linecap:round;stroke-linejoin:round;stroke-miterlimit:4;stroke-dasharray:none;stroke-opacity:1"
         id="path4787"
         inkscape:connector-curvature="0" /></g></g></svg>