<?xml version="1.0" encoding="UTF-8" standalone="no"?>
<!-- Created with Inkscape (http://www.inkscape.org/) -->

<svg
   xmlns:dc="http://purl.org/dc/elements/1.1/"
   xmlns:cc="http://creativecommons.org/ns#"
   xmlns:rdf="http://www.w3.org/1999/02/22-rdf-syntax-ns#"
   xmlns:svg="http://www.w3.org/2000/svg"
   xmlns="http://www.w3.org/2000/svg"
   xmlns:sodipodi="http://sodipodi.sourceforge.net/DTD/sodipodi-0.dtd"
   xmlns:inkscape="http://www.inkscape.org/namespaces/inkscape"
   id="svg4258"
   version="1.1"
   inkscape:version="0.91 r13725"
   xml:space="preserve"
   width="1204.7257"
   height="1021.5361"
   viewBox="0 0 1204.7257 1021.5361"
   sodipodi:docname="Niveau 1.svg"><metadata
     id="metadata4264"><rdf:RDF><cc:Work
         rdf:about=""><dc:format>image/svg+xml</dc:format><dc:type
           rdf:resource="http://purl.org/dc/dcmitype/StillImage" /><dc:title></dc:title></cc:Work></rdf:RDF></metadata><defs
     id="defs4262" /><sodipodi:namedview
     pagecolor="#ffffff"
     bordercolor="#666666"
     borderopacity="1"
     objecttolerance="10"
     gridtolerance="10"
     guidetolerance="10"
     inkscape:pageopacity="0"
     inkscape:pageshadow="2"
     inkscape:window-width="1920"
     inkscape:window-height="1018"
     id="namedview4260"
     showgrid="false"
     fit-margin-top="0"
     fit-margin-left="0"
     fit-margin-right="0"
     fit-margin-bottom="0"
     inkscape:zoom="1.2032988"
     inkscape:cx="610.40769"
     inkscape:cy="463.74227"
     inkscape:window-x="-8"
     inkscape:window-y="-8"
     inkscape:window-maximized="1"
     inkscape:current-layer="g4266" /><g
     id="g4266"
     inkscape:groupmode="layer"
     inkscape:label="Niveau 1"
     transform="matrix(1.25,0,0,-1.25,-708.21095,1527.2886)"><g
       id="g4432"
       transform="matrix(4.9985198,0,0,4.9995908,1045.3582,797.42353)"
       style="stroke:#ff0000;stroke-width:0.05714212;stroke-miterlimit:4;stroke-dasharray:none;stroke-opacity:1"><path
         d="m 34.636354,-14.778178 0.488,0.097 0.414,0.277 0.277,0.413 0.097,0.489 -0.097,0.488 -0.277,0.414 -0.414,0.276 -0.488,0.097 -0.488,-0.097 -0.414,-0.276 -0.276,-0.414 -0.098,-0.488 0.098,-0.489 0.276,-0.413 0.414,-0.277 0.488,-0.097 m 0,-31.181 0.488,0.097 0.414,0.277 0.277,0.413 0.097,0.489 -0.097,0.488 -0.277,0.413 -0.414,0.277 -0.488,0.097 -0.488,-0.097 -0.414,-0.277 -0.276,-0.413 -0.098,-0.488 0.098,-0.489 0.276,-0.413 0.414,-0.277 0.488,-0.097 m -68.031,0 0.488,0.097 0.413,0.277 0.277,0.413 0.097,0.489 -0.097,0.488 -0.277,0.413 -0.413,0.277 -0.488,0.097 -0.489,-0.097 -0.413,-0.277 -0.277,-0.413 -0.097,-0.488 0.097,-0.489 0.277,-0.413 0.413,-0.277 0.489,-0.097 m 0,31.181 0.488,0.097 0.413,0.277 0.277,0.413 0.097,0.489 -0.097,0.488 -0.277,0.414 -0.413,0.276 -0.488,0.097 -0.489,-0.097 -0.413,-0.276 -0.277,-0.414 -0.097,-0.488 0.097,-0.489 0.277,-0.413 0.413,-0.277 0.489,-0.097 m 127.907,-20.294 0.547,0.421 0.491,0.485 0.429,0.541 0.359,0.589 0.286,0.629 0.207,0.658 0.125,0.679 0.042,0.689 m -66.261,-47.967 63.775,43.276 m -65.545,-42.338 0.041,-0.303 0.121,-0.282 0.192,-0.238 0.249,-0.179 0.287,-0.105 0.305,-0.025 0.301,0.058 0.274,0.136 m -1.77,71.3660003 0,-70.4280003 m 1.66,68.7680003 -1.66,1.66 m 5.669,-3.3210003 -0.556,0.027 -0.55,0.082 -0.54,0.135 -0.524,0.1880003 -0.502,0.238 -0.478,0.285 -0.447,0.332 -0.412,0.374 m 4.009,-1.6610003 8.84,0 m 0,0 1.431,0.091 1.408,0.2700003 1.362,0.446 1.296,0.615 1.207,0.773 1.101,0.919 0.975,1.051 0.835,1.165 0.682,1.262 0.516,1.337 0.344,1.39199998 0.166,1.424 -0.016,1.43400002 -0.196,1.42 -0.375,1.384 -0.545,1.326 m 0,0 -5.899,12.0949997 m 0,0 -0.609,1.05 -0.751,0.952 -0.88,0.836 -0.989,0.702 -1.079,0.555 -1.148,0.395 -1.191,0.227 -1.212,0.056 -1.208,-0.117 -1.179,-0.288 -1.125,-0.453 m 0,0 -7.43,-3.624 m 0,40.956 0,-40.956 m -5.67,46.625 1.106,-0.109 1.064,-0.322 0.98,-0.524 0.859,-0.705 0.705,-0.859 0.524,-0.98 0.323,-1.064 0.109,-1.106 m -5.67,5.669 -45.354,0 m -5.669,-5.669 0.109,1.106 0.322,1.064 0.524,0.98 0.705,0.859 0.859,0.705 0.981,0.524 1.063,0.322 1.106,0.109 m -5.669,-29.179 -1.498,0.558 -1.55,0.385 -1.585,0.207 -1.598,0.027 -1.59,-0.154 -1.563,-0.332 -1.515,-0.507 -1.449,-0.676 -1.362,-0.834 -1.26,-0.984 -1.14,-1.119 m 0,0 -10.855,-18.151 m 0,0 -0.314,-0.605 -0.239,-0.638 -0.161,-0.662 -0.08,-0.676 10e-4,-0.681 0.083,-0.676 0.164,-0.6619997 0.241,-0.637 m 0,0 7.193,-15.981 m 0,0 0.386,-0.716 0.484,-0.653 0.573,-0.576 0.649,-0.49 0.712,-0.391 0.761,-0.2850003 0.794,-0.174 0.811,-0.058 m 0,0 9.238,0 m 4.008,1.6610003 -0.412,-0.374 -0.447,-0.332 -0.477,-0.285 -0.503,-0.238 -0.524,-0.1880003 -0.539,-0.135 -0.551,-0.082 -0.555,-0.027 m 4.008,1.6610003 1.661,1.66 m 0,0 0,-70.4280003 m -1.771,-0.938 0.275,-0.136 0.3,-0.058 0.305,0.025 0.288,0.105 0.249,0.179 0.191,0.238 0.121,0.282 0.042,0.303 m -65.546,42.338 63.775,-43.276 m -66.261,47.967 0.042,-0.689 0.126,-0.679 0.207,-0.658 0.285,-0.629 0.36,-0.589 0.429,-0.541 0.491,-0.485 0.546,-0.421 m -2.486,4.691 0,66.072 m 2.486,4.692 -0.546,-0.422 -0.491,-0.485 -0.429,-0.541 -0.36,-0.589 -0.285,-0.629 -0.207,-0.658 -0.126,-0.679 -0.042,-0.689 m 2.486,4.692 64.104,43.499 m 3.184,0.978 -0.422,-0.016 -0.42,-0.047 -0.415,-0.078 -0.408,-0.109 -0.399,-0.139 -0.388,-0.169 -0.373,-0.196 -0.359,-0.224 m 3.184,0.978 53.209,0 m 3.183,-0.978 -0.358,0.224 -0.374,0.196 -0.387,0.169 -0.399,0.139 -0.408,0.109 -0.415,0.078 -0.42,0.047 -0.422,0.016 m 3.183,-0.978 64.104,-43.499 m 2.486,-4.692 -0.042,0.689 -0.125,0.679 -0.207,0.658 -0.286,0.629 -0.359,0.589 -0.429,0.541 -0.491,0.485 -0.547,0.422 m 2.486,-4.692 0,-66.072 m -119.053,106.397 0.347,0.069 0.294,0.196 0.197,0.295 0.069,0.347 -0.069,0.347 -0.197,0.294 -0.294,0.197 -0.347,0.069 -0.348,-0.069 -0.294,-0.197 -0.197,-0.294 -0.069,-0.347 0.069,-0.347 0.197,-0.295 0.294,-0.196 0.348,-0.069 m 45.354,0 0.347,0.069 0.294,0.196 0.197,0.295 0.069,0.347 -0.069,0.347 -0.197,0.294 -0.294,0.197 -0.347,0.069 -0.347,-0.069 -0.295,-0.197 -0.196,-0.294 -0.069,-0.347 0.069,-0.347 0.196,-0.295 0.295,-0.196 0.347,-0.069 m 65.762,-45.92 0.347,0.069 0.295,0.196 0.196,0.295 0.069,0.347 -0.069,0.347 -0.196,0.294 -0.295,0.197 -0.347,0.069 -0.347,-0.069 -0.294,-0.197 -0.197,-0.294 -0.069,-0.347 0.069,-0.347 0.197,-0.295 0.294,-0.196 0.347,-0.069 m -176.882,-0.003 0.347,0.069 0.295,0.197 0.196,0.294 0.069,0.347 -0.069,0.347 -0.196,0.295 -0.295,0.196 -0.347,0.069 -0.347,-0.069 -0.294,-0.196 -0.197,-0.295 -0.069,-0.347 0.069,-0.347 0.197,-0.294 0.294,-0.197 0.347,-0.069 m 0,-56.693 0.347,0.069 0.295,0.197 0.196,0.294 0.069,0.347 -0.069,0.348 -0.196,0.294 -0.295,0.196 -0.347,0.069 -0.347,-0.069 -0.294,-0.196 -0.197,-0.294 -0.069,-0.348 0.069,-0.347 0.197,-0.294 0.294,-0.197 0.347,-0.069 m 176.882,5.672 0.347,0.069 0.295,0.197 0.196,0.294 0.069,0.347 -0.069,0.347 -0.196,0.295 -0.295,0.196 -0.347,0.069 -0.347,-0.069 -0.294,-0.196 -0.197,-0.295 -0.069,-0.347 0.069,-0.347 0.197,-0.294 0.294,-0.197 0.347,-0.069 m -116.787,80.276 0,-23.51"
         style="fill:none;stroke:#ff0000;stroke-width:0.05714212;stroke-linecap:round;stroke-linejoin:round;stroke-miterlimit:4;stroke-dasharray:none;stroke-opacity:1"
         id="path4434"
         inkscape:connector-curvature="0" /></g></g></svg>