<?xml version="1.0" encoding="UTF-8" standalone="no"?>
<!-- Created with Inkscape (http://www.inkscape.org/) -->

<svg
   xmlns:dc="http://purl.org/dc/elements/1.1/"
   xmlns:cc="http://creativecommons.org/ns#"
   xmlns:rdf="http://www.w3.org/1999/02/22-rdf-syntax-ns#"
   xmlns:svg="http://www.w3.org/2000/svg"
   xmlns="http://www.w3.org/2000/svg"
   xmlns:sodipodi="http://sodipodi.sourceforge.net/DTD/sodipodi-0.dtd"
   xmlns:inkscape="http://www.inkscape.org/namespaces/inkscape"
   width="210mm"
   height="297mm"
   viewBox="0 0 744.09448819 1052.3622047"
   id="svg2"
   version="1.1"
   inkscape:version="0.91 r13725"
   sodipodi:docname="niveau 0.svg">
  <defs
     id="defs4" />
  <sodipodi:namedview
     id="base"
     pagecolor="#ffffff"
     bordercolor="#666666"
     borderopacity="1.0"
     inkscape:pageopacity="0.0"
     inkscape:pageshadow="2"
     inkscape:zoom="0.98994949"
     inkscape:cx="285.75507"
     inkscape:cy="380.69237"
     inkscape:document-units="px"
     inkscape:current-layer="g4146"
     showgrid="false"
     inkscape:window-width="1920"
     inkscape:window-height="1018"
     inkscape:window-x="-8"
     inkscape:window-y="-8"
     inkscape:window-maximized="1" />
  <metadata
     id="metadata7">
    <rdf:RDF>
      <cc:Work
         rdf:about="">
        <dc:format>image/svg+xml</dc:format>
        <dc:type
           rdf:resource="http://purl.org/dc/dcmitype/StillImage" />
        <dc:title></dc:title>
      </cc:Work>
    </rdf:RDF>
  </metadata>
  <g
     inkscape:label="Calque 1"
     inkscape:groupmode="layer"
     id="layer1">
    <g
       transform="matrix(6.2154601,0,0,-6.2295506,-2826.0532,3353.9421)"
       inkscape:label="Niveau 0"
       id="g4144"
       style="stroke:#ff0000;stroke-opacity:1;stroke-width:0.05694345;stroke-miterlimit:4;stroke-dasharray:none">
      <g
         transform="translate(411.4807,428.598)"
         id="g4146"
         style="stroke:#ff0000;stroke-opacity:1;stroke-width:0.05694345;stroke-miterlimit:4;stroke-dasharray:none">
        <path
           inkscape:connector-curvature="0"
           id="path4148"
           style="fill:none;stroke:#ff0000;stroke-width:0.05694345;stroke-linecap:round;stroke-linejoin:round;stroke-miterlimit:4;stroke-dasharray:none;stroke-opacity:1"
           d="M 9.7913149e-5,0.08892301 0.04232018,-0.60116753 0.16798167,-1.2812422 0.3760771,-1.9402837 0.6635906,-2.5702793 1.0254957,-3.1602116 1.4557606,-3.7020679 1.949359,-4.1878356 2.4992537,-4.6095019 M 9.7913149e-5,50.853146 l 0,-50.76422299 M 2.4992537,55.552572 1.949359,55.129904 1.4557606,54.644137 1.0254957,54.10228 0.6635906,53.512348 0.3760771,52.882352 0.16798167,52.223311 0.04232018,51.543236 9.7913149e-5,50.853146 M 2.4992537,55.552572 78.341493,106.8266 m 3.199845,0.97954 -0.424233,-0.016 -0.422223,-0.0471 -0.417196,-0.0781 -0.410159,-0.10917 -0.401112,-0.13921 -0.389048,-0.16827 -0.375979,-0.19731 -0.359895,-0.22436 m 3.199845,0.97954 53.490572,0 m 3.19985,-0.97954 -0.3599,0.22436 -0.37598,0.19731 -0.38904,0.16827 -0.40112,0.13921 -0.41016,0.10917 -0.41719,0.0781 -0.42222,0.0471 -0.42424,0.016 m 3.19985,-0.97954 75.84224,-51.274028 m 2.49916,-4.699426 -0.0422,0.69009 -0.12566,0.680075 -0.2081,0.659041 -0.28751,0.629996 -0.36191,0.589932 -0.43026,0.541857 -0.4936,0.485767 -0.5499,0.422668 m 2.49916,-4.699426 0,-50.76422299 m -2.49918,-4.69842491 0.5499,0.4216663 0.4936,0.4857677 0.43026,0.5418563 0.36191,0.5899323 0.28751,0.6299956 0.2081,0.6590415 0.12566,0.68007467 0.0422,0.69009054 M 138.1634,-55.930605 214.074,-4.6095019 m -77.66182,-50.6330161 0.0935,-0.259409 0.15381,-0.228361 0.20407,-0.185293 0.24228,-0.131207 0.26741,-0.06911 0.27645,-0.003 0.26842,0.0631 0.24529,0.125198 m -9.07476,32.710693 7.32354,-32.022606 m 0.37095,32.022606 -7.69449,0 m 7.69449,74.243327 0,-74.243327 m -5.69899,79.9213 1.11185,-0.109173 1.06862,-0.32251 0.98519,-0.524828 0.86455,-0.706117 0.70873,-0.860359 0.52577,-0.981551 0.3247,-1.065685 0.10958,-1.10775 m -5.69899,5.677973 -45.59502,0 m -5.699001,-5.677973 0.109577,1.10775 0.32471,1.065685 0.526773,0.981551 0.708731,0.860359 0.863545,0.706117 0.985186,0.524828 1.068625,0.32251 1.111854,0.109173 m -5.699001,-5.677973 0,-74.243327 m 7.694504,0 -7.694504,0 m 0.370953,-32.022606 7.323551,32.022606 m -9.07477,-32.710693 0.245292,-0.125198 0.268413,-0.0631 0.276455,0.003 0.267408,0.06911 0.242275,0.131207 0.204074,0.185293 0.15381,0.228361 0.09349,0.259409 M 2.4992537,-4.6095019 78.409853,-55.930605 m 68.062287,69.051122 0.49058,0.09816 0.41619,0.276436 0.27746,0.414656 0.0975,0.488772 -0.0975,0.488773 -0.27746,0.414656 -0.41619,0.277437 -0.49058,0.09715 -0.49059,-0.09715 -0.41619,-0.277437 -0.27846,-0.414656 -0.0975,-0.488773 0.0975,-0.488772 0.27846,-0.414656 0.41619,-0.276436 0.49059,-0.09816 m -76.371024,0 0.490582,0.09816 0.416191,0.276436 0.278466,0.414656 0.09751,0.488772 -0.09751,0.488773 -0.278466,0.414656 -0.416191,0.277437 -0.490582,0.09715 -0.490583,-0.09715 -0.416191,-0.277437 -0.277461,-0.414656 -0.09751,-0.488773 0.09751,-0.488772 0.277461,-0.414656 0.416191,-0.276436 0.490583,-0.09816 m 76.371024,22.145997 0.49058,0.09715 0.41619,0.276438 0.27746,0.414655 0.0975,0.488772 -0.0975,0.488773 -0.27746,0.414655 -0.41619,0.277438 -0.49058,0.09715 -0.49059,-0.09715 -0.41619,-0.277438 -0.27846,-0.414655 -0.0975,-0.488773 0.0975,-0.488772 0.27846,-0.414655 0.41619,-0.276438 0.49059,-0.09715 m -76.371024,0 0.490582,0.09715 0.416191,0.276438 0.278466,0.414655 0.09751,0.488772 -0.09751,0.488773 -0.278466,0.414655 -0.416191,0.277438 -0.490582,0.09715 -0.490583,-0.09715 -0.416191,-0.277438 -0.277461,-0.414655 -0.09751,-0.488773 0.09751,-0.488772 0.277461,-0.414655 0.416191,-0.276438 0.490583,-0.09715 m -58.702013,4.399953 0.109577,1.107751 0.323704,1.065684 0.526773,0.981551 0.708731,0.86036 0.863546,0.706116 0.985186,0.524829 1.06963,0.323511 1.111853,0.109173 m -5.699,-5.678975 0,-28.390866 m 5.699,-5.6779725 L 15.98625,5.706801 14.91662,6.0293106 13.931434,6.55414 13.067888,7.2602558 12.359157,8.1206154 11.832384,9.1021666 11.50868,10.16785 11.399103,11.275601 m 5.699,-5.6779725 36.62178,0 M 58.642798,8.4140793 58.227612,7.8011105 57.736025,7.2472352 57.176077,6.7614676 56.557823,6.3518203 55.891314,6.0263059 55.188615,5.7889307 54.459778,5.6457044 53.719883,5.5976284 m 4.922915,2.8164508 5.553233,9.4849888 m 0.776085,2.861523 -0.01206,-0.374593 -0.0372,-0.37359 -0.06233,-0.369584 -0.08646,-0.364576 -0.109577,-0.358567 -0.133704,-0.349552 -0.156826,-0.34154 -0.177936,-0.329521 m 0.776085,2.861523 0,9.421889 m -0.776085,2.86052 0.177936,-0.32952 0.156826,-0.340539 0.133704,-0.350554 0.109577,-0.358566 0.08646,-0.364576 0.06233,-0.369585 0.0372,-0.372588 0.01206,-0.374592 M 58.642798,42.52799 64.196031,33.043 m -10.476148,12.302442 0.739895,-0.04808 0.728837,-0.144228 0.702699,-0.236374 0.666509,-0.326515 0.618254,-0.408646 0.559948,-0.485768 0.491587,-0.554877 0.415186,-0.612968 m -4.922915,2.817452 -36.62178,0 M 162.85337,5.5976285 l -0.73989,0.048076 -0.72884,0.1432263 -0.7027,0.2373752 -0.66651,0.3255144 -0.61825,0.4096473 -0.55995,0.4857676 -0.49159,0.5538753 -0.41518,0.6129688 m 4.92291,-2.8164508 36.62178,0 m 5.699,5.6779724 L 205.06558,10.16785 204.74087,9.1021667 204.2141,8.1206155 203.50537,7.2602559 202.64182,6.5541401 201.65663,6.0293107 200.587,5.7068011 199.47515,5.5976286 m 5.699,5.6779724 0,28.390866 m -5.699,5.678975 1.11185,-0.109173 1.06963,-0.323511 0.98519,-0.524829 0.86355,-0.706116 0.70873,-0.86036 0.52677,-0.981551 0.32471,-1.065684 0.10857,-1.107751 m -5.699,5.678975 -36.62178,0 m -4.92291,-2.817452 0.41518,0.612968 0.49159,0.554877 0.55995,0.485768 0.61825,0.408646 0.66651,0.326515 0.7027,0.236374 0.72884,0.144228 0.73989,0.04808 M 152.37722,33.043 l 5.55324,9.48499 m -6.32932,-12.34551 0.0121,0.374592 0.0372,0.372588 0.0623,0.369585 0.0865,0.364576 0.10958,0.358566 0.1337,0.350554 0.15683,0.340539 0.17793,0.32952 m -0.77608,-2.86052 0,-9.421889 m 0.77608,-2.861523 -0.17793,0.329521 -0.15683,0.34154 -0.1337,0.349552 -0.10958,0.358567 -0.0865,0.364576 -0.0623,0.369584 -0.0372,0.37359 -0.0121,0.374593 m 0.77608,-2.861523 5.55324,-9.4849886 m -83.839341,-0.403638 0.490583,0.097154 0.416191,0.2774383 0.27746,0.4146553 0.09751,0.4887725 -0.09751,0.4887723 -0.27746,0.4146542 -0.416191,0.276437 -0.490583,0.09715 -0.490582,-0.09715 L 73.184346,10.191888 72.90588,9.7772338 72.80837,9.2884615 72.90588,8.799689 73.184346,8.3850337 73.600537,8.1075954 74.091119,8.0104414 m 0,-31.2303534 0.490583,0.09715 0.416191,0.277438 0.27746,0.413653 0.09751,0.489775 -0.09751,0.488772 -0.27746,0.414655 -0.416191,0.276438 -0.490583,0.09715 -0.490582,-0.09715 -0.416191,-0.276438 -0.278466,-0.414655 -0.09751,-0.488772 0.09751,-0.489775 0.278466,-0.413653 0.416191,-0.277438 0.490582,-0.09715 m 68.391011,0 0.49059,0.09715 0.41619,0.277438 0.27846,0.413653 0.0975,0.489775 -0.0975,0.488772 -0.27846,0.414655 -0.41619,0.276438 -0.49059,0.09715 -0.49058,-0.09715 -0.41619,-0.276438 -0.27746,-0.414655 -0.0975,-0.488772 0.0975,-0.489775 0.27746,-0.413653 0.41619,-0.277438 0.49058,-0.09715 m 0,31.2303534 0.49059,0.097154 0.41619,0.2774383 0.27846,0.4146553 0.0975,0.4887725 -0.0975,0.4887723 -0.27846,0.4146542 -0.41619,0.276437 -0.49059,0.09715 -0.49058,-0.09715 -0.41619,-0.276437 -0.27746,-0.4146542 -0.0975,-0.4887723 0.0975,-0.4887725 0.27746,-0.4146553 0.41619,-0.2774383 0.49058,-0.097154"
           sodipodi:nodetypes="cccccccccccccccccccccccccccccccccccccccccccccccccccccccccccccccccccccccccccccccccccccccccccccccccccccccccccccccccccccccccccccccccccccccccccccccccccccccccccccccccccccccccccccccccccccccccccccccccccccccccccccccccccccccccccccccccccccccccccccccccccccccccccccccccccccccccccccccccccccccccccccccccccccccccccccccccccccccccccccccccccccccccccccccccccccccccccccccccccccccccccccccccccccccccccccccccc" />
      </g>
      <path
         style="fill:#000000;fill-opacity:1;fill-rule:evenodd;stroke:none;stroke-width:0.06327334;stroke-miterlimit:4;stroke-dasharray:none;stroke-opacity:1"
         d="m 624.82353,758.62905 c -4.46957,-0.45217 -7.88101,-1.45168 -12.02442,-3.52298 -6.12168,-3.06025 -10.67502,-7.22411 -14.20433,-12.98931 -2.43379,-3.97566 -3.68412,-7.23521 -4.56979,-11.91322 -0.56489,-2.9837 -0.62996,-3.63912 -0.62936,-6.33929 6e-4,-2.68758 0.0677,-3.36676 0.62339,-6.31385 0.51339,-2.72251 0.81538,-3.80418 1.71998,-6.16071 3.16405,-8.24247 9.17723,-14.87109 17.05987,-18.80589 2.40483,-1.20043 3.3228,-1.54835 6.1318,-2.32399 2.82901,-0.78117 3.73966,-0.951 6.33929,-1.18221 2.83871,-0.25248 3.25589,-0.24807 6.42857,0.068 2.90718,0.2896 3.79778,0.45617 6.22159,1.16362 4.0111,1.17074 7.98504,3.17222 11.38082,5.73198 6.84535,5.16004 11.59424,12.80977 13.19336,21.25247 0.49488,2.61275 0.54352,3.19777 0.54352,6.53804 0,3.33557 -0.0496,3.93412 -0.54644,6.59477 -1.57123,8.41423 -6.22262,15.94858 -13.09225,21.2069 -2.06763,1.58265 -3.1402,2.24974 -5.57672,3.46847 -2.57036,1.28568 -3.49235,1.64204 -6.23102,2.40837 -2.65779,0.74369 -3.64712,0.93424 -5.71429,1.10059 -1.375,0.11065 -2.82143,0.23116 -3.21428,0.26779 -0.39286,0.0366 -2.12054,-0.0756 -3.83929,-0.24954 z"
         id="path4703"
         inkscape:connector-curvature="0"
         transform="matrix(0.16088914,0,0,-0.16052522,454.68126,538.3923)" />
      <path
         style="fill:#000000;fill-opacity:1;fill-rule:evenodd;stroke:none;stroke-width:0.17896403;stroke-miterlimit:4;stroke-dasharray:none;stroke-opacity:1"
         d="m 170.18252,758.43231 c -15.15032,-1.4364 -27.64992,-12.9769 -30.58585,-28.239 -0.9196,-4.78043 -0.9196,-7.84648 0,-12.62691 2.0737,-10.77988 9.07692,-20.0681 18.79806,-24.93143 9.14571,-4.57546 21.50093,-4.57546 30.64665,0 11.58506,5.79583 19.52676,18.50339 19.52676,31.24488 0,9.28385 -4.23258,18.74868 -11.36141,25.40623 -7.45647,6.96351 -16.77646,10.11783 -27.02421,9.14623 z"
         id="path4705"
         inkscape:connector-curvature="0"
         transform="matrix(0.16088914,0,0,-0.16052522,454.68126,538.3923)" />
    </g>
  </g>
</svg>
